<?xml version="1.0" encoding="UTF-8"?>
<svg version="1.1" xmlns="http://www.w3.org/2000/svg" width="231" height="172">
<path d="M0 0 C76.23 0 152.46 0 231 0 C231 56.76 231 113.52 231 172 C154.77 172 78.54 172 0 172 C0 115.24 0 58.48 0 0 Z " fill="#160D31" transform="translate(0,0)"/>
<path d="M0 0 C0.99 0.33 1.98 0.66 3 1 C3 2.32 3 3.64 3 5 C3.66 5 4.32 5 5 5 C5.66 3.68 6.32 2.36 7 1 C7.33 1 7.66 1 8 1 C8 2.65 8 4.3 8 6 C9.11375 5.9175 10.2275 5.835 11.375 5.75 C21.01797219 5.78407411 29.07971145 11.25122478 35.79296875 17.73046875 C39.12863309 21.31967527 40.75286013 23.93363272 41 29 C42.65 29.33 44.3 29.66 46 30 C46.495 31.485 46.495 31.485 47 33 C49.07883627 33.69419897 49.07883627 33.69419897 51.5 34 C53.96875 34.375 53.96875 34.375 56 35 C56.33 35.99 56.66 36.98 57 38 C54.9237343 39.03513247 52.83868521 40.05266211 50.75 41.0625 C49.58984375 41.63097656 48.4296875 42.19945312 47.234375 42.78515625 C44 44 44 44 41.765625 43.80859375 C40 43 40 43 37 41 C37.66 41.99 38.32 42.98 39 44 C39.10564371 47.80317359 37.53634456 49.81611204 35.0625 52.5 C30.90867781 56.43114307 26.21755614 58.7603095 21 61 C19.8716272 61.52122437 19.8716272 61.52122437 18.72045898 62.05297852 C15.65401202 63.12044219 13.28343136 63.22854801 10.04296875 63.1953125 C8.93115234 63.18886719 7.81933594 63.18242188 6.67382812 63.17578125 C5.52333984 63.15902344 4.37285156 63.14226562 3.1875 63.125 C2.01767578 63.11597656 0.84785156 63.10695312 -0.35742188 63.09765625 C-3.23849053 63.07413732 -6.11913989 63.04126852 -9 63 C-6.46452329 60.33487226 -4.02765463 58.21277999 -0.8828125 56.30859375 C-0.11066406 55.83873047 0.66148438 55.36886719 1.45703125 54.88476562 C2.25496094 54.40716797 3.05289063 53.92957031 3.875 53.4375 C4.66519531 52.95603516 5.45539063 52.47457031 6.26953125 51.97851562 C9.638832 49.94067732 12.967231 48.01601959 16.5078125 46.28515625 C19.12223018 45.24719411 19.12223018 45.24719411 20 43 C12.08 43.33 4.16 43.66 -4 44 C-0.04 44.66 3.92 45.32 8 46 C7 50 7 50 5.3203125 51.38110352 C4.59585938 51.79287842 3.87140625 52.20465332 3.125 52.62890625 C2.31200439 53.10158936 1.49900879 53.57427246 0.66137695 54.0612793 C-0.65600464 54.80438354 -0.65600464 54.80438354 -2 55.5625 C-3.82048624 56.61985893 -5.63946977 57.67980888 -7.45703125 58.7421875 C-8.3795166 59.2794043 -9.30200195 59.81662109 -10.25244141 60.37011719 C-14.46668557 62.87005446 -18.58237325 65.51320396 -22.6875 68.1875 C-23.77321289 68.89144897 -23.77321289 68.89144897 -24.88085938 69.60961914 C-28.10106563 71.59833688 -28.10106563 71.59833688 -31 74 C-33.01964199 74.07244053 -35.04167124 74.08377188 -37.0625 74.0625 C-38.16722656 74.05347656 -39.27195313 74.04445313 -40.41015625 74.03515625 C-41.26480469 74.02355469 -42.11945312 74.01195313 -43 74 C-41.84826645 71.53199953 -40.95216435 69.95216435 -39 68 C-42.01521619 69.03378841 -43.9415715 69.94630894 -46.3125 72.125 C-50.07905823 74.75283132 -52.47958059 74.30646911 -57 74 C-55.61867539 70.8731209 -54.02096237 68.80079608 -51.5625 66.4375 C-50.96566406 65.85871094 -50.36882813 65.27992187 -49.75390625 64.68359375 C-48.88572266 63.85021484 -48.88572266 63.85021484 -48 63 C-46.99863399 62.00136788 -45.99842092 61.00157659 -45 60 C-47.98022951 62.14436028 -50.95900293 64.29073419 -53.9375 66.4375 C-55.21270508 67.35499023 -55.21270508 67.35499023 -56.51367188 68.29101562 C-57.32255859 68.87431641 -58.13144531 69.45761719 -58.96484375 70.05859375 C-59.7137085 70.59798584 -60.46257324 71.13737793 -61.23413086 71.69311523 C-62.93055637 72.88131194 -62.93055637 72.88131194 -64 74 C-66.18639453 74.07258946 -68.37500389 74.08373783 -70.5625 74.0625 C-71.76003906 74.05347656 -72.95757812 74.04445313 -74.19140625 74.03515625 C-75.58166016 74.01775391 -75.58166016 74.01775391 -77 74 C-76.43446569 70.50876819 -75.41269168 69.14360755 -72.6875 66.9375 C-69.03239902 63.88611408 -65.49440181 60.73307655 -62 57.5 C-58.09113533 53.89885317 -54.14131011 50.3558021 -50.125 46.875 C-47.38176582 44.45449925 -44.69115432 41.97799358 -42 39.5 C-38.08944385 35.89919087 -34.141817 32.35238227 -30.12109375 28.875 C-27.92468544 26.93342359 -25.77447812 24.9457911 -23.62695312 22.95043945 C-8.57992131 9 -8.57992131 9 -3 9 C-3.495 7.02 -3.495 7.02 -4 5 C-2.68 5 -1.36 5 0 5 C0 3.35 0 1.7 0 0 Z " fill="#C70D3B" transform="translate(105,15)"/>
<path d="M0 0 C0.33 0 0.66 0 1 0 C0.67 2.31 0.34 4.62 0 7 C-0.66 7 -1.32 7 -2 7 C-2.37898438 8.09634766 -2.37898438 8.09634766 -2.765625 9.21484375 C-5.69763282 15.83041835 -11.60726034 21.65834063 -18 25 C-19.32 25 -20.64 25 -22 25 C-21.71617054 26.75128818 -21.42260471 28.50100003 -21.125 30.25 C-20.96257812 31.22453125 -20.80015625 32.1990625 -20.6328125 33.203125 C-20.04790412 35.7882756 -19.18941149 37.66115723 -18 40 C-18 40.99 -18 41.98 -18 43 C-13.12929813 44.88989379 -8.77608662 45.4014447 -3.625 45.625 C-2.88894531 45.66367188 -2.15289062 45.70234375 -1.39453125 45.7421875 C0.40327406 45.83557998 2.20160108 45.9188371 4 46 C4.33 45.01 4.66 44.02 5 43 C7.14453125 40.921875 7.14453125 40.921875 9.8125 38.75 C10.68519531 38.02296875 11.55789062 37.2959375 12.45703125 36.546875 C15 35 15 35 17.32421875 35.265625 C17.87722656 35.50796875 18.43023437 35.7503125 19 36 C17.50958227 39.79379058 15.30937488 41.68343758 12 44 C11.34 44 10.68 44 10 44 C10 44.66 10 45.32 10 46 C17.26 46 24.52 46 32 46 C31.67 47.32 31.34 48.64 31 50 C21.76 50 12.52 50 3 50 C3.495 52.97 3.495 52.97 4 56 C3.0625 59.875 3.0625 59.875 2 63 C0.68 63 -0.64 63 -2 63 C-2 62.01 -2 61.02 -2 60 C-1.34 60 -0.68 60 0 60 C-0.45822468 56.53058454 -0.89131683 53.32604951 -2 50 C-26.42 50 -50.84 50 -76 50 C-76 51.65 -76 53.3 -76 55 C-75.01 55 -74.02 55 -73 55 C-73 55.66 -73 56.32 -73 57 C-72.34 57 -71.68 57 -71 57 C-71 56.34 -71 55.68 -71 55 C-70.01 55 -69.02 55 -68 55 C-68 57.31 -68 59.62 -68 62 C-68.99 62 -69.98 62 -71 62 C-71 61.34 -71 60.68 -71 60 C-71.66 60 -72.32 60 -73 60 C-73 60.66 -73 61.32 -73 62 C-73.99 62 -74.98 62 -76 62 C-76.66 62.99 -77.32 63.98 -78 65 C-79.32 65 -80.64 65 -82 65 C-82 63.02 -82 61.04 -82 59 C-84.97 59.495 -84.97 59.495 -88 60 C-88.33 58.68 -88.66 57.36 -89 56 C-86.35261084 54.5393715 -85.10551666 54 -82 54 C-82 52.68 -82 51.36 -82 50 C-87.94 50 -93.88 50 -100 50 C-100.33 48.68 -100.66 47.36 -101 46 C-99.42075457 44.42075457 -97.81165191 44.85172951 -95.61962891 44.82641602 C-94.2228038 44.80618126 -94.2228038 44.80618126 -92.79776001 44.78553772 C-91.78426483 44.77509933 -90.77076965 44.76466095 -89.7265625 44.75390625 C-87.60155837 44.72096839 -85.47655847 44.68775673 -83.3515625 44.65429688 C-79.98505571 44.60684319 -76.61856616 44.56242503 -73.25195312 44.52319336 C-70.01413782 44.48355149 -66.77668142 44.43198532 -63.5390625 44.37890625 C-62.52961578 44.3704921 -61.52016907 44.36207794 -60.48013306 44.35340881 C-59.07385147 44.32844582 -59.07385147 44.32844582 -57.63916016 44.30297852 C-56.81388824 44.29267105 -55.98861633 44.28236359 -55.13833618 44.27174377 C-52.70278797 44.12352176 -52.70278797 44.12352176 -50 42 C-49.41312216 38.65386488 -49.41312216 38.65386488 -49.3125 34.875 C-49.24675781 33.59367187 -49.18101563 32.31234375 -49.11328125 30.9921875 C-49.07589844 30.00476563 -49.03851563 29.01734375 -49 28 C-49.59167969 27.89042969 -50.18335938 27.78085938 -50.79296875 27.66796875 C-59.33773454 25.95343989 -59.33773454 25.95343989 -63 23 C-63 20 -63 20 -61.5871582 18.41430664 C-54.2696497 12.95234874 -46.92441322 13.2614945 -38.1875 13.4375 C-23.31815629 13.70139161 -12.45535622 11.12207248 -1 1 C-0.67 0.67 -0.34 0.34 0 0 Z " fill="#CA9143" transform="translate(144,66)"/>
<path d="M0 0 C2.5625 2.25 2.5625 2.25 5 5 C4.8125 7.3125 4.8125 7.3125 4 9 C4.99 9.495 4.99 9.495 6 10 C5.67 11.32 5.34 12.64 5 14 C4.01 14 3.02 14 2 14 C0.07331748 15.38024782 0.07331748 15.38024782 -1.9375 17.1875 C-12.32125242 25.43447648 -22.53166179 26.67957644 -35.3125 26.5 C-47.65661497 26.02349541 -47.65661497 26.02349541 -58 32 C-58.66 32 -59.32 32 -60 32 C-60.33 32.99 -60.66 33.98 -61 35 C-61 34.01 -61 33.02 -61 32 C-61.66 31.67 -62.32 31.34 -63 31 C-60.14780748 29.18437996 -57.29305371 27.37282867 -54.4375 25.5625 C-53.5830127 25.01988525 -52.72852539 24.47727051 -51.84814453 23.91821289 C-47.74255102 21.3217705 -43.62769539 18.75611073 -39.43359375 16.3046875 C-38.74531494 15.9017749 -38.05703613 15.4988623 -37.34790039 15.08374023 C-36.0560572 14.33318909 -34.75978741 13.59019372 -33.45874023 12.85571289 C-29.7708734 10.78046291 -29.7708734 10.78046291 -28 7 C-29.175625 7.04125 -30.35125 7.0825 -31.5625 7.125 C-35.72409674 7.13983635 -39.06487667 6.31170778 -43 5 C-43 4.67 -43 4.34 -43 4 C-34.09 4 -25.18 4 -16 4 C-18.1540652 8.30813041 -18.70147132 8.48158657 -22.88720703 10.08447266 C-27.17664288 11.94319515 -31.01968895 14.65805393 -34.9375 17.1875 C-35.81212891 17.74630859 -36.68675781 18.30511719 -37.58789062 18.88085938 C-39.7282736 20.24930095 -41.86549451 21.62241587 -44 23 C-40.18776488 23.11745244 -36.37600318 23.18766603 -32.5625 23.25 C-31.49322266 23.28351563 -30.42394531 23.31703125 -29.32226562 23.3515625 C-22.25240027 23.43804403 -17.16027034 22.48320503 -11 19 C-10.25685547 18.59040039 -9.51371094 18.18080078 -8.74804688 17.75878906 C-4.16980315 15.1608707 -0.86795039 12.44069738 2 8 C2.01453953 5.32024404 2.01453953 5.32024404 1 3 C0.505 1.515 0.505 1.515 0 0 Z " fill="#420C33" transform="translate(141,54)"/>
<path d="M0 0 C0.32613281 0.49113281 0.65226562 0.98226562 0.98828125 1.48828125 C4.11231945 3.83585947 7.44666118 3.31491722 11.1875 3.1875 C12.31188477 3.16719727 12.31188477 3.16719727 13.45898438 3.14648438 C15.30629767 3.11118539 17.15324066 3.05737917 19 3 C19.33820166 4.5823006 19.67035939 6.16589375 20 7.75 C20.185625 8.63171875 20.37125 9.5134375 20.5625 10.421875 C21 13 21 13 21 17 C16.23107503 20.13745064 12.82181534 20.17794363 7.3671875 19.6171875 C4.42617558 18.85038901 3.03991174 18.29147037 1 16 C0.54281872 13.15433959 0.30478554 10.66383827 0.25 7.8125 C0.22035156 7.06291016 0.19070312 6.31332031 0.16015625 5.54101562 C0.0895921 3.69458693 0.04251524 1.84728739 0 0 Z " fill="#221632" transform="translate(99,92)"/>
<path d="M0 0 C0.33 0 0.66 0 1 0 C0.67 2.31 0.34 4.62 0 7 C-0.66 7 -1.32 7 -2 7 C-2.66 8.32 -3.32 9.64 -4 11 C-4 10.34 -4 9.68 -4 9 C-6.49552484 9.78130071 -6.49552484 9.78130071 -9 11 C-9.33 11.99 -9.66 12.98 -10 14 C-18.90625606 18.22719191 -28.60077126 18.51069117 -38.27026367 18.67236328 C-44.93433297 18.80486873 -50.31161333 19.20774222 -56 23 C-56 23.99 -56 24.98 -56 26 C-58.9375 25.25 -58.9375 25.25 -62 24 C-62.69140625 21.921875 -62.69140625 21.921875 -63 20 C-55.47139886 13.11146656 -47.85024235 13.24284363 -38.1875 13.4375 C-23.31815629 13.70139161 -12.45535622 11.12207248 -1 1 C-0.67 0.67 -0.34 0.34 0 0 Z " fill="#A87730" transform="translate(144,66)"/>
<path d="M0 0 C2.5625 2.25 2.5625 2.25 5 5 C4.8125 7.3125 4.8125 7.3125 4 9 C4.99 9.495 4.99 9.495 6 10 C5.67 11.32 5.34 12.64 5 14 C4.01 14 3.02 14 2 14 C0.07331748 15.38024782 0.07331748 15.38024782 -1.9375 17.1875 C-12.32125242 25.43447648 -22.53166179 26.67957644 -35.3125 26.5 C-47.65661497 26.02349541 -47.65661497 26.02349541 -58 32 C-58.66 32 -59.32 32 -60 32 C-60.33 32.99 -60.66 33.98 -61 35 C-61 34.01 -61 33.02 -61 32 C-61.66 31.67 -62.32 31.34 -63 31 C-54.65478704 24.36019175 -48.55760023 23.13558026 -38.0625 23.8125 C-24.64972983 24.5491448 -13.62953149 22.72444234 -3 14 C-0.85019101 12.04787459 0.40668327 10.49619621 2 8 C2.01453953 5.32024404 2.01453953 5.32024404 1 3 C0.505 1.515 0.505 1.515 0 0 Z " fill="#3F1932" transform="translate(141,54)"/>
<path d="M0 0 C0.91845703 0.45246094 0.91845703 0.45246094 1.85546875 0.9140625 C2.18546875 1.9040625 2.51546875 2.8940625 2.85546875 3.9140625 C0.77920305 4.94919497 -1.30584604 5.96672461 -3.39453125 6.9765625 C-4.5546875 7.54503906 -5.71484375 8.11351562 -6.91015625 8.69921875 C-10.14453125 9.9140625 -10.14453125 9.9140625 -12.421875 9.70703125 C-15.00462217 8.51814763 -16.44081249 7.18568751 -18.14453125 4.9140625 C-18.14453125 1.72396175 -17.58684197 0.40551886 -15.45703125 -1.9609375 C-10.54965805 -4.34830824 -4.95017202 -1.50909767 0 0 Z " fill="#A37331" transform="translate(159.14453125,49.0859375)"/>
<path d="M0 0 C1.31238144 0.00222061 2.62476288 0.00444122 3.97691345 0.00672913 C4.6988237 0.0065831 5.42073395 0.00643707 6.16452026 0.00628662 C8.56156879 0.00698583 10.95854054 0.01477857 13.35557556 0.02259827 C15.0132442 0.02446242 16.67091338 0.02588633 18.32858276 0.02688599 C22.69996145 0.03071139 27.07130712 0.04054186 31.44267273 0.05158997 C35.89996392 0.0618036 40.35726043 0.0663835 44.81455994 0.07142639 C53.56652824 0.08216412 62.31846968 0.0992408 71.07041931 0.12025452 C71.07041931 0.45025452 71.07041931 0.78025452 71.07041931 1.12025452 C46.98041931 1.12025452 22.89041931 1.12025452 -1.92958069 1.12025452 C-1.92958069 2.77025452 -1.92958069 4.42025452 -1.92958069 6.12025452 C-0.93958069 6.12025452 0.05041931 6.12025452 1.07041931 6.12025452 C1.07041931 6.78025452 1.07041931 7.44025452 1.07041931 8.12025452 C1.73041931 8.12025452 2.39041931 8.12025452 3.07041931 8.12025452 C3.07041931 7.46025452 3.07041931 6.80025452 3.07041931 6.12025452 C4.06041931 6.12025452 5.05041931 6.12025452 6.07041931 6.12025452 C6.07041931 8.43025452 6.07041931 10.74025452 6.07041931 13.12025452 C5.08041931 13.12025452 4.09041931 13.12025452 3.07041931 13.12025452 C3.07041931 12.46025452 3.07041931 11.80025452 3.07041931 11.12025452 C2.41041931 11.12025452 1.75041931 11.12025452 1.07041931 11.12025452 C1.07041931 11.78025452 1.07041931 12.44025452 1.07041931 13.12025452 C0.08041931 13.12025452 -0.90958069 13.12025452 -1.92958069 13.12025452 C-2.58958069 13.78025452 -3.24958069 14.44025452 -3.92958069 15.12025452 C-3.95643481 12.8078166 -3.9759091 10.49529182 -3.99208069 8.18275452 C-4.00368225 6.89498108 -4.01528381 5.60720764 -4.02723694 4.28041077 C-3.89990919 0.16008492 -3.89990919 0.16008492 0 0 Z " fill="#724F39" transform="translate(69.92958068847656,114.87974548339844)"/>
<path d="M0 0 C0.33 0 0.66 0 1 0 C0.67 2.31 0.34 4.62 0 7 C-0.66 7 -1.32 7 -2 7 C-2.66 8.32 -3.32 9.64 -4 11 C-4 10.34 -4 9.68 -4 9 C-5.010625 9.639375 -6.02125 10.27875 -7.0625 10.9375 C-10.66539064 13.01299887 -13.84546643 13.60052562 -18 14 C-18.99 14.33 -19.98 14.66 -21 15 C-23.51368055 15.0846817 -25.99869374 15.11601885 -28.51171875 15.09765625 C-29.23994339 15.0962413 -29.96816803 15.09482635 -30.71846008 15.09336853 C-33.04151539 15.08777659 -35.36447388 15.07522562 -37.6875 15.0625 C-39.26367048 15.05748396 -40.83984248 15.05292123 -42.41601562 15.04882812 C-46.27738098 15.0378098 -50.13867408 15.02055074 -54 15 C-54 14.67 -54 14.34 -54 14 C-53.0934668 13.99589111 -52.18693359 13.99178223 -51.25292969 13.98754883 C-47.83030371 13.96028473 -44.40937982 13.91090911 -40.98730469 13.84741211 C-39.51736179 13.82447433 -38.04726019 13.80989434 -36.57714844 13.80444336 C-22.16586356 13.74054612 -10.54076789 10.54076789 0 0 Z " fill="#855D30" transform="translate(144,66)"/>
<path d="M0 0 C1.2684375 0.12375 1.2684375 0.12375 2.5625 0.25 C3.2225 1.24 3.8825 2.23 4.5625 3.25 C4.8925 2.26 5.2225 1.27 5.5625 0.25 C7.5425 0.25 9.5225 0.25 11.5625 0.25 C11.5625 1.9 11.5625 3.55 11.5625 5.25 C10.9025 5.25 10.2425 5.25 9.5625 5.25 C9.5625 6.24 9.5625 7.23 9.5625 8.25 C8.77875 8.064375 7.995 7.87875 7.1875 7.6875 C4.59160225 6.99037734 4.59160225 6.99037734 2.5625 8.25 C0.56289988 8.289992 -1.43797242 8.29346799 -3.4375 8.25 C-3.47991723 5.91705225 -3.47842937 3.58297433 -3.4375 1.25 C-2.4375 0.25 -2.4375 0.25 0 0 Z " fill="#553B37" transform="translate(122.4375,120.75)"/>
<path d="M0 0 C1 1 1 1 1.0625 4.0625 C1.041875 5.031875 1.02125 6.00125 1 7 C-2.375 7.625 -2.375 7.625 -6 8 C-8 6 -8 6 -8.125 2.875 C-8.08375 1.92625 -8.0425 0.9775 -8 0 C-4.69676014 -1.10107995 -3.29495231 -0.86709271 0 0 Z " fill="#2B1237" transform="translate(135,36)"/>
<path d="M0 0 C-1.13685423 3.41056269 -2.15331969 4.19934165 -4.875 6.4375 C-7.68861414 8.75795299 -9.90741794 11.00589673 -12 14 C-5.71091518 13.47519999 -5.71091518 13.47519999 0 11 C-1.14453125 12.984375 -1.14453125 12.984375 -3 15 C-5.69921875 15.390625 -5.69921875 15.390625 -8.6875 15.25 C-9.68136719 15.21390625 -10.67523438 15.1778125 -11.69921875 15.140625 C-12.83810547 15.07101563 -12.83810547 15.07101563 -14 15 C-13.67 13.68 -13.34 12.36 -13 11 C-13.66 10.67 -14.32 10.34 -15 10 C-12.87941855 8.32742872 -10.75395924 6.66184582 -8.625 5 C-8.02171875 4.52304688 -7.4184375 4.04609375 -6.796875 3.5546875 C-2.2265625 0 -2.2265625 0 0 0 Z " fill="#550C34" transform="translate(60,75)"/>
<path d="M0 0 C-1.56020867 0.65134925 -3.12328579 1.29582964 -4.6875 1.9375 C-5.55761719 2.29714844 -6.42773438 2.65679687 -7.32421875 3.02734375 C-11.9305416 4.70175892 -16.29337343 5.14804736 -21.17578125 5.31640625 C-22.33271484 5.35830078 -23.48964844 5.40019531 -24.68164062 5.44335938 C-25.87982422 5.48267578 -27.07800781 5.52199219 -28.3125 5.5625 C-29.53001953 5.60568359 -30.74753906 5.64886719 -32.00195312 5.69335938 C-35.0011947 5.79921496 -38.00051591 5.90129726 -41 6 C-37.84370718 3.89580479 -37.01023808 3.74621683 -33.39453125 3.69140625 C-32.49283203 3.66626953 -31.59113281 3.64113281 -30.66210938 3.61523438 C-28.78196328 3.58044072 -26.90174937 3.54911598 -25.02148438 3.52148438 C-18.98839161 3.34592951 -14.5547357 2.35452653 -9 0 C-2.51162791 -1.25581395 -2.51162791 -1.25581395 0 0 Z " fill="#BB8534" transform="translate(135,79)"/>
<path d="M0 0 C1.98 0 3.96 0 6 0 C6 2.64 6 5.28 6 8 C1.45194365 8.17835515 -1.8794254 7.99785435 -6 6 C-6 5.34 -6 4.68 -6 4 C-3.69 4.33 -1.38 4.66 1 5 C0.67 3.35 0.34 1.7 0 0 Z " fill="#533A37" transform="translate(180,121)"/>
<path d="M0 0 C4.3890815 0.51035831 7.33708062 1.52214277 11 4 C10.67 4.66 10.34 5.32 10 6 C8.20866022 6.05391993 6.41686101 6.09275571 4.625 6.125 C3.62726563 6.14820313 2.62953125 6.17140625 1.6015625 6.1953125 C-1 6 -1 6 -3 4 C-2.01 2.68 -1.02 1.36 0 0 Z " fill="#D89B45" transform="translate(146,46)"/>
<path d="M0 0 C8.91 0 17.82 0 27 0 C26.34 1.32 25.68 2.64 25 4 C24.34 3.67 23.68 3.34 23 3 C23.33 2.67 23.66 2.34 24 2 C21.36 2 18.72 2 16 2 C16.66 2.66 17.32 3.32 18 4 C17.01 4.66 16.02 5.32 15 6 C15 5.01 15 4.02 15 3 C13.2365625 3.061875 13.2365625 3.061875 11.4375 3.125 C7.27590326 3.13983635 3.93512333 2.31170778 0 1 C0 0.67 0 0.34 0 0 Z " fill="#830C37" transform="translate(98,58)"/>
<path d="M0 0 C2.625 0.375 2.625 0.375 5 1 C5.625 3.375 5.625 3.375 6 6 C5.34 6.66 4.68 7.32 4 8 C1.375 7.625 1.375 7.625 -1 7 C-1.625 4.625 -1.625 4.625 -2 2 C-1.34 1.34 -0.68 0.68 0 0 Z " fill="#90663D" transform="translate(80,121)"/>
<path d="M0 0 C0.66 0.33 1.32 0.66 2 1 C1.67 1.33 1.34 1.66 1 2 C6.28 2.33 11.56 2.66 17 3 C17 3.66 17 4.32 17 5 C10.07 5 3.14 5 -4 5 C-4 4.34 -4 3.68 -4 3 C-2 1.375 -2 1.375 0 0 Z " fill="#563B37" transform="translate(158,107)"/>
<path d="M0 0 C1.4540625 0.0309375 1.4540625 0.0309375 2.9375 0.0625 C3.0625 2.9375 3.0625 2.9375 2.9375 6.0625 C2.2775 6.7225 1.6175 7.3825 0.9375 8.0625 C-2.59821429 7.52678571 -2.59821429 7.52678571 -4.0625 6.0625 C-4.1875 3.5625 -4.1875 3.5625 -4.0625 1.0625 C-3.0625 0.0625 -3.0625 0.0625 0 0 Z " fill="#956A3E" transform="translate(92.0625,120.9375)"/>
<path d="M0 0 C0.57234375 0.23589844 1.1446875 0.47179687 1.734375 0.71484375 C0.28312866 4.54085682 -1.62337204 5.93813499 -5.265625 7.71484375 C-8.265625 7.71484375 -8.265625 7.71484375 -10.265625 6.71484375 C-9.03009224 5.51229851 -7.77660161 4.32818143 -6.515625 3.15234375 C-5.81953125 2.49105469 -5.1234375 1.82976562 -4.40625 1.1484375 C-2.265625 -0.28515625 -2.265625 -0.28515625 0 0 Z " fill="#B88442" transform="translate(161.265625,101.28515625)"/>
<path d="M0 0 C1.65 0 3.3 0 5 0 C5 2.64 5 5.28 5 8 C3.35 8 1.7 8 0 8 C0 5.36 0 2.72 0 0 Z " fill="#6A4B3A" transform="translate(106,121)"/>
<path d="M0 0 C0.99 0 1.98 0 3 0 C3 2.31 3 4.62 3 7 C2.01 7 1.02 7 0 7 C0 6.34 0 5.68 0 5 C-0.66 5 -1.32 5 -2 5 C-2 5.66 -2 6.32 -2 7 C-2.66 7 -3.32 7 -4 7 C-4 5.02 -4 3.04 -4 1 C-2.68 1.33 -1.36 1.66 0 2 C0 1.34 0 0.68 0 0 Z " fill="#9F713F" transform="translate(73,121)"/>
<path d="M0 0 C0.66 0.99 1.32 1.98 2 3 C4.66653905 3.36460453 4.66653905 3.36460453 7.625 3.1875 C8.62789062 3.16042969 9.63078125 3.13335937 10.6640625 3.10546875 C11.43492187 3.07066406 12.20578125 3.03585938 13 3 C13 2.34 13 1.68 13 1 C14.32 1.66 15.64 2.32 17 3 C17 3.66 17 4.32 17 5 C10.73 5 4.46 5 -2 5 C-1 1 -1 1 0 0 Z " fill="#BC7D3F" transform="translate(143,48)"/>
<path d="M0 0 C1.32 0.33 2.64 0.66 4 1 C4.33 2.98 4.66 4.96 5 7 C2.69 6.67 0.38 6.34 -2 6 C-1.34 4.02 -0.68 2.04 0 0 Z " fill="#AA7940" transform="translate(152,122)"/>
<path d="M0 0 C1.65 0 3.3 0 5 0 C5 1.98 5 3.96 5 6 C3.35 6.33 1.7 6.66 0 7 C0 4.69 0 2.38 0 0 Z " fill="#9F713F" transform="translate(98,122)"/>
<path d="M0 0 C-0.33 2.31 -0.66 4.62 -1 7 C-1.66 7 -2.32 7 -3 7 C-3.66 8.32 -4.32 9.64 -5 11 C-5 10.34 -5 9.68 -5 9 C-5.66 9 -6.32 9 -7 9 C-5.99432671 5.98298013 -3.90847918 0 0 0 Z " fill="#A47437" transform="translate(145,66)"/>
<path d="M0 0 C1.98 0 3.96 0 6 0 C6 1.98 6 3.96 6 6 C4.02 6 2.04 6 0 6 C0 4.02 0 2.04 0 0 Z " fill="#B88441" transform="translate(166,122)"/>
<path d="M0 0 C1.32 0 2.64 0 4 0 C4 2.64 4 5.28 4 8 C2.68 8 1.36 8 0 8 C0 5.36 0 2.72 0 0 Z " fill="#71503A" transform="translate(159,121)"/>
<path d="M0 0 C1.32 0.66 2.64 1.32 4 2 C3.34 4.31 2.68 6.62 2 9 C0.68 9 -0.64 9 -2 9 C-2 8.01 -2 7.02 -2 6 C-1.34 6 -0.68 6 0 6 C0 4.02 0 2.04 0 0 Z " fill="#8F653C" transform="translate(144,120)"/>
<path d="M0 0 C1.98 0 3.96 0 6 0 C6 0.99 6 1.98 6 3 C5.34 3 4.68 3 4 3 C4.33 4.32 4.66 5.64 5 7 C3.68 7 2.36 7 1 7 C0.67 4.69 0.34 2.38 0 0 Z " fill="#9A6D3E" transform="translate(180,121)"/>
<path d="M0 0 C1.2065625 0.0309375 1.2065625 0.0309375 2.4375 0.0625 C2.7675 1.7125 3.0975 3.3625 3.4375 5.0625 C3.1075 4.4025 2.7775 3.7425 2.4375 3.0625 C1.1175 3.0625 -0.2025 3.0625 -1.5625 3.0625 C-1.5625 4.0525 -1.5625 5.0425 -1.5625 6.0625 C-0.5725 6.3925 0.4175 6.7225 1.4375 7.0625 C-0.2125 6.7325 -1.8625 6.4025 -3.5625 6.0625 C-3.605221 4.39638095 -3.60313832 2.72867115 -3.5625 1.0625 C-2.5625 0.0625 -2.5625 0.0625 0 0 Z " fill="#A6773F" transform="translate(122.5625,120.9375)"/>
<path d="M0 0 C1.32 0.33 2.64 0.66 4 1 C4 2.98 4 4.96 4 7 C1.69 7.33 -0.62 7.66 -3 8 C-3.33 7.34 -3.66 6.68 -4 6 C-1.69 6 0.62 6 3 6 C3 5.01 3 4.02 3 3 C2.01 3 1.02 3 0 3 C0 2.01 0 1.02 0 0 Z " fill="#5D264A" transform="translate(132,36)"/>
<path d="M0 0 C0.33 0 0.66 0 1 0 C1 1.65 1 3.3 1 5 C3.64 5 6.28 5 9 5 C9 5.33 9 5.66 9 6 C5.7 6.33 2.4 6.66 -1 7 C-1 6.34 -1 5.68 -1 5 C-1.99 4.67 -2.98 4.34 -4 4 C-3.34 4 -2.68 4 -2 4 C-1.34 2.68 -0.68 1.36 0 0 Z " fill="#A40C39" transform="translate(112,16)"/>
<path d="M0 0 C-0.33 0.99 -0.66 1.98 -1 3 C-6.49245937 4.83081979 -11.24091942 5.20568145 -17 5 C-17 4.67 -17 4.34 -17 4 C-16.33613281 3.87882812 -15.67226562 3.75765625 -14.98828125 3.6328125 C-10.1727914 2.71892392 -4.72326566 0 0 0 Z " fill="#936730" transform="translate(132,76)"/>
<path d="M0 0 C1.65 0 3.3 0 5 0 C4.34 1.98 3.68 3.96 3 6 C3.66 6.33 4.32 6.66 5 7 C4.01 7 3.02 7 2 7 C0 5 0 5 -0.125 2.375 C-0.08375 1.59125 -0.0425 0.8075 0 0 Z " fill="#362533" transform="translate(147,122)"/>
<path d="M0 0 C0.66 0.33 1.32 0.66 2 1 C-0.31 3.31 -2.62 5.62 -5 8 C-5.99 7.34 -6.98 6.68 -8 6 C-5.36 4.02 -2.72 2.04 0 0 Z " fill="#780C37" transform="translate(73,75)"/>
<path d="M0 0 C1.32 0 2.64 0 4 0 C4.33 0.99 4.66 1.98 5 3 C4.67 3.66 4.34 4.32 4 5 C2.02 5 0.04 5 -2 5 C-1.67 4.34 -1.34 3.68 -1 3 C-0.67 2.01 -0.34 1.02 0 0 Z " fill="#684939" transform="translate(121,124)"/>
<path d="M0 0 C1.32 0 2.64 0 4 0 C4 0.99 4 1.98 4 3 C3.34 3 2.68 3 2 3 C2 3.66 2 4.32 2 5 C2.66 5.33 3.32 5.66 4 6 C2.68 6 1.36 6 0 6 C0 4.02 0 2.04 0 0 Z " fill="#C38C43" transform="translate(106,122)"/>
<path d="M0 0 C0.66 0.33 1.32 0.66 2 1 C0.68 2.65 -0.64 4.3 -2 6 C-1.34 6.66 -0.68 7.32 0 8 C-1.32 8 -2.64 8 -4 8 C-4.33 6.68 -4.66 5.36 -5 4 C-3.35 2.68 -1.7 1.36 0 0 Z " fill="#C28B3F" transform="translate(92,85)"/>
<path d="M0 0 C1.32 0 2.64 0 4 0 C4 0.99 4 1.98 4 3 C3.34 3 2.68 3 2 3 C2 3.99 2 4.98 2 6 C1.34 6 0.68 6 0 6 C0 4.02 0 2.04 0 0 Z " fill="#BD8742" transform="translate(129,122)"/>
<path d="M0 0 C0 2.31 0 4.62 0 7 C-0.99 7 -1.98 7 -3 7 C-3 5.02 -3 3.04 -3 1 C-1 0 -1 0 0 0 Z " fill="#332233" transform="translate(106,121)"/>
</svg>
