<svg xmlns="http://www.w3.org/2000/svg" viewBox="0 0 400 400">
  <!-- Definitions for gradients and filters -->
  <defs>
    <linearGradient id="bgGradient" x1="0%" y1="0%" x2="100%" y2="100%">
      <stop offset="0%" style="stop-color:#4F46E5"/>
      <stop offset="100%" style="stop-color:#7C3AED"/>
    </linearGradient>
    
    <linearGradient id="letterGradient" x1="0%" y1="0%" x2="100%" y2="100%">
      <stop offset="0%" style="stop-color:#F472B6"/>
      <stop offset="100%" style="stop-color:#EC4899"/>
    </linearGradient>
    
    <filter id="glow" x="-20%" y="-20%" width="140%" height="140%">
      <feGaussianBlur stdDeviation="8" result="blur"/>
      <feComposite in="SourceGraphic" in2="blur" operator="over"/>
    </filter>
  </defs>
  
  <!-- Main Background -->
  <rect x="40" y="40" width="320" height="320" rx="80" ry="80" fill="url(#bgGradient)"/>
  
  <!-- Decorative Connection Elements -->
  <circle cx="110" cy="200" r="8" fill="white" opacity="0.7"/>
  <circle cx="290" cy="200" r="8" fill="white" opacity="0.7"/>
  <circle cx="160" cy="120" r="8" fill="white" opacity="0.7"/>
  <circle cx="240" cy="280" r="8" fill="white" opacity="0.7"/>
  <circle cx="200" cy="120" r="8" fill="white" opacity="0.7"/>
  <circle cx="200" cy="280" r="8" fill="white" opacity="0.7"/>
  
  <line x1="110" y1="200" x2="160" y2="120" stroke="white" stroke-width="3" opacity="0.5"/>
  <line x1="160" y1="120" x2="200" y2="120" stroke="white" stroke-width="3" opacity="0.5"/>
  <line x1="200" y1="120" x2="290" y2="200" stroke="white" stroke-width="3" opacity="0.5"/>
  <line x1="290" y1="200" x2="240" y2="280" stroke="white" stroke-width="3" opacity="0.5"/>
  <line x1="240" y1="280" x2="200" y2="280" stroke="white" stroke-width="3" opacity="0.5"/>
  <line x1="200" y1="280" x2="110" y2="200" stroke="white" stroke-width="3" opacity="0.5"/>
  
  <!-- H Letter -->
  <path d="M110 150 L110 250 M110 200 L170 200 M170 150 L170 250" 
        stroke="white" stroke-width="20" stroke-linecap="round" stroke-linejoin="round" filter="url(#glow)"/>
  
  <!-- O Letter -->
  <circle cx="200" cy="200" r="50" 
          stroke="white" stroke-width="20" fill="none" stroke-linecap="round" filter="url(#glow)"/>
  
  <!-- J Letter -->
  <path d="M290 150 L290 230 C290 245, 275 260, 260 260" 
        stroke="white" stroke-width="20" stroke-linecap="round" stroke-linejoin="round" filter="url(#glow)"/>
  
  <!-- Inner Decorative Element -->
  <circle cx="200" cy="200" r="20" fill="url(#letterGradient)"/>
  
  <!-- Animated Pulse Effect (Static Representation) -->
  <circle cx="200" cy="200" r="35" fill="none" stroke="white" stroke-width="2" opacity="0.3"/>
  <circle cx="200" cy="200" r="42" fill="none" stroke="white" stroke-width="1.5" opacity="0.2"/>
  <circle cx="200" cy="200" r="49" fill="none" stroke="white" stroke-width="1" opacity="0.1"/>
</svg>